<svg width="20" height="20" viewBox="0 0 20 20" fill="none" xmlns="http://www.w3.org/2000/svg">
<path d="M13.7336 8.67509C13.4086 9.00009 12.8669 9.00009 12.5419 8.67509L8.81689 4.95842L2.94189 10.8251L2.39189 10.3001C1.41689 9.32509 1.41689 7.74176 2.39189 6.76676L5.92523 3.23342C6.90023 2.25842 8.48356 2.25842 9.45856 3.23342L13.7336 7.50009C14.0586 7.82509 14.0586 8.35009 13.7336 8.67509ZM14.3169 6.90842C14.9669 7.55842 14.9669 8.61676 14.3169 9.26676C13.2586 10.3251 12.1419 9.45009 11.9586 9.26676L8.82523 6.13342L4.18356 10.7751C3.85856 11.1001 3.85856 11.6251 4.18356 11.9501C4.50856 12.2751 5.03356 12.2751 5.36689 11.9501L9.21689 8.10009L9.80856 8.69176L5.95856 12.5418C5.63356 12.8668 5.63356 13.3918 5.95856 13.7168C6.28356 14.0418 6.80856 14.0418 7.14189 13.7168L10.9919 9.86676L11.5836 10.4584L7.73356 14.3084C7.40856 14.6334 7.40856 15.1584 7.73356 15.4834C8.05856 15.8084 8.58356 15.8084 8.90856 15.4834L12.7586 11.6334L13.3502 12.2251L9.50023 16.0751C9.17523 16.4001 9.17523 16.9251 9.50023 17.2501C9.82523 17.5751 10.3502 17.5751 10.6752 17.2501L17.6086 10.3001C18.5836 9.32509 18.5836 7.74176 17.6086 6.76676L14.0752 3.23342C13.1169 2.27509 11.5669 2.25842 10.5919 3.18342L14.3169 6.90842Z" fill="#747474"/>
</svg>
