<svg width="20" height="20" viewBox="0 0 20 20" fill="none" xmlns="http://www.w3.org/2000/svg">
<path d="M6.2498 4.6665L8.33314 5.83317L7.16647 3.74984L8.33314 1.6665L6.2498 2.83317L4.16647 1.6665L5.33314 3.74984L4.16647 5.83317L6.2498 4.6665ZM16.2498 12.8332L14.1665 11.6665L15.3331 13.7498L14.1665 15.8332L16.2498 14.6665L18.3331 15.8332L17.1665 13.7498L18.3331 11.6665L16.2498 12.8332ZM18.3331 1.6665L16.2498 2.83317L14.1665 1.6665L15.3331 3.74984L14.1665 5.83317L16.2498 4.6665L18.3331 5.83317L17.1665 3.74984L18.3331 1.6665ZM11.9748 6.07484C11.6498 5.74984 11.1248 5.74984 10.7998 6.07484L1.0748 15.7998C0.749805 16.1248 0.749805 16.6498 1.0748 16.9748L3.0248 18.9248C3.3498 19.2498 3.8748 19.2498 4.1998 18.9248L13.9165 9.20817C14.2415 8.88317 14.2415 8.35817 13.9165 8.03317L11.9748 6.07484V6.07484ZM11.1165 10.6498L9.3498 8.88317L11.3831 6.84984L13.1498 8.6165L11.1165 10.6498V10.6498Z" fill="#747474"/>
</svg>
